<svg width="64" height="80" viewBox="0 0 64 80" fill="none" xmlns="http://www.w3.org/2000/svg">
<path fill-rule="evenodd" clip-rule="evenodd" d="M0 11.6943V67.6942C0 74.3218 5.3726 79.6942 12 79.6942H52C58.6276 79.6942 64 74.3218 64 67.6942V27.6943C64 21.0669 58.6276 15.6943 52 15.6943H4C1.79088 15.6943 0 13.9035 0 11.6943ZM13 39.6942C13 38.0374 14.3432 36.6942 16 36.6942H48C49.6568 36.6942 51 38.0374 51 39.6942C51 41.351 49.6568 42.6942 48 42.6942H16C14.3432 42.6942 13 41.351 13 39.6942ZM13 53.6942C13 52.0374 14.3432 50.6942 16 50.6942H38C39.6568 50.6942 41 52.0374 41 53.6942C41 55.351 39.6568 56.6942 38 56.6942H16C14.3432 56.6942 13 55.351 13 53.6942Z" fill="white"/>
<path opacity="0.5" d="M56 8.9185V16.3771C54.7488 15.9349 53.4024 15.6943 52 15.6943H4C1.79088 15.6943 0 13.9035 0 11.6943V11.4101C0 9.27806 1.56772 7.47046 3.67836 7.16894L46.8688 0.998904C51.688 0.310384 56 4.0501 56 8.9185Z" fill="white"/>
</svg>
